# xmcd
#
# Track frame offsets:
#	150
#	19379
#	39594
#	56292
#	68930
#	85372
#	107433
#	121350
#	133384
#	162744
#	169574
#	204687
#	225325
#	247864
#	275126
#	291545
#	313494
#	332687
#
# Disc length: 4655 seconds
#
# Revision: 1
# Processed by: cddbd v1.5.2PL0 Copyright (c) Steve Scherf et al.
# Submitted via: EZCDAudioConverter 1.3.4.1
#
DISCID=14122d12
DTITLE=John Martyn - Bless The Weather
DYEAR=1971
DGENRE=
TTITLE0=Go Easy
TTITLE1=Bless The Weather
TTITLE2=Sugar Lump
TTITLE3=Walk On The Water
TTITLE4=Just Now
TTITLE5=Head And Heart
TTITLE6=Let The Good Things Come
TTITLE7=Back Down The River
TTITLE8=Glistening Glyndebourne
TTITLE9=Singin' In The Rain
TTITLE10=Glistening Glyndebourne [Alternate Take]
TTITLE11=Go Easy [Take 2]
TTITLE12=Head And Heart [Alternate Take]
TTITLE13=Sugar Lump [Take 1]
TTITLE14=Just Now [Alternate Take]
TTITLE15=Bless The Weather [Alternate Take]
TTITLE16=Go Easy [Take 3]
TTITLE17=Singin' In The Rain [Alternate Take]
EXTD=
EXTT0=
EXTT1=
EXTT2=
EXTT3=
EXTT4=
EXTT5=
EXTT6=
EXTT7=
EXTT8=
EXTT9=
EXTT10=
EXTT11=
EXTT12=
EXTT13=
EXTT14=
EXTT15=
EXTT16=
EXTT17=
PLAYORDER=
